<?xml version="1.0" encoding="iso-8859-1"?>
<!-- Uploaded to: SVG Repo, www.svgrepo.com, Generator: SVG Repo Mixer Tools -->
<svg version="1.1" id="Layer_1" xmlns="http://www.w3.org/2000/svg" xmlns:xlink="http://www.w3.org/1999/xlink" 
	 viewBox="0 0 512 512" xml:space="preserve">
<circle style="fill:#E6E6E6;" cx="255.89" cy="255.998" r="255.89"/>
<path style="fill:#CCCCCC;" d="M230.115,510.624L74.169,353.622l337.037-212.999l100.371,101.005c0.212,4.65,0.423,9.51,0.423,14.37
	c0,141.365-114.529,255.894-255.894,255.894c-8.664,0-17.327-0.423-25.78-1.268L230.115,510.624L230.115,510.624z"/>
<path style="fill:#727271;" d="M132.913,133.439h264.135c9.453,0,17.116,7.663,17.116,17.116v176.654
	c0,9.453-7.663,17.116-17.116,17.116H132.913c-9.453,0-17.116-7.663-17.116-17.116V150.555
	C115.797,141.102,123.46,133.439,132.913,133.439z"/>
<path style="fill:#5B5B5B;" d="M410.995,140.624c1.902,2.747,3.17,6.128,3.17,9.72v176.865c0,9.298-7.607,17.116-17.116,17.116
	H132.702c-0.845,0-1.902,0-2.747-0.211l280.829-203.49L410.995,140.624L410.995,140.624z"/>
<rect x="139.89" y="150.348" style="fill:#FDFDFD;" width="250.19" height="159.12"/>
<circle style="fill:#FEFEFE;" cx="264.98" cy="326.368" r="11.411"/>
<path style="fill:#FFC130;" d="M97.836,339.042l42.896,32.541c7.184-10.143,9.509-9.298,18.595-13.946
	c27.47-13.524,55.363-21.342,33.598-42.05c3.804-4.226,6.339-7.607,4.649-12.467c-1.69-5.071-5.494-5.494-9.086-9.509
	c14.158-22.399-4.649-20.286-12.89-23.878c14.158-19.652,13.735-16.271,30.428-34.866c2.536-2.958,8.241-8.875,9.509-12.256
	c2.324-5.283-2.536-8.664-6.973-7.607c-5.705,1.479-35.922,30.851-42.262,37.402c-8.241,8.452-11.199,11.411-20.92,16.905
	c-10.565,6.128-13.735,5.705-20.074,18.173c-8.875,17.327-16.059,35.711-27.681,51.559h0.211V339.042z"/>
<path style="fill:#006775;" d="M91.074,331.224l57.476,43.741c1.057,0.845,1.268,2.536,0.423,3.592l-13.946,18.173
	c-0.845,1.057-2.536,1.268-3.592,0.423l-57.476-43.741c-1.057-0.845-1.268-2.536-0.423-3.592l13.946-18.173
	C88.327,330.59,90.017,330.379,91.074,331.224z"/>
<path style="fill:#E87D04;" d="M253.359,181.829v-21.765h4.437v8.664h8.664v-8.664h4.438v21.765h-4.438v-9.509h-8.664v9.509H253.359
	z M274.489,171.052c0-2.324,0.423-4.015,1.057-5.705c0.423-1.057,1.268-2.113,2.113-2.958s1.902-1.479,2.747-1.902
	c1.268-0.634,2.958-0.845,4.649-0.845c3.17,0,5.705,1.057,7.818,2.958c1.902,1.902,2.958,4.86,2.958,8.241
	c0,3.592-1.057,6.339-2.958,8.241c-1.902,1.902-4.437,2.958-7.607,2.958s-5.917-1.057-7.818-2.958
	c-1.902-1.902-2.958-4.649-2.958-8.241v0.211H274.489z M278.927,170.841c0,2.536,0.634,4.437,1.69,5.705
	c1.057,1.268,2.536,1.902,4.437,1.902c1.69,0,3.17-0.634,4.437-1.902c1.057-1.268,1.69-3.17,1.69-5.705s-0.634-4.437-1.69-5.705
	s-2.536-1.902-4.437-1.902c-1.902,0-3.381,0.634-4.437,1.902C279.561,166.403,278.927,168.305,278.927,170.841z M303.861,181.829
	v-18.173h-6.551v-3.592h17.327v3.592h-6.339v18.173H303.861z M317.596,181.829v-21.765h16.059v3.592h-11.833v4.86h10.988v3.592
	h-10.988v5.917h12.256v3.592h-16.482V181.829z M338.093,181.829v-21.553h4.438v17.961h10.988v3.592H338.093z"/>
<path style="fill:#E6E6E6;" d="M261.811,191.972h83.467c5.283,0,9.72,4.437,9.72,9.72v81.565H252.302v-81.565
	c0-5.283,4.437-9.72,9.72-9.72H261.811z"/>
<rect x="252.09" y="280.088" style="fill:#CCCCCC;" width="102.7" height="8.241"/>
<path style="fill:#663333;" d="M256.106,273.537l1.479,21.342h-6.551l2.958-21.342H256.106z"/>
<path style="fill:#17BF41;" d="M254.838,247.123c5.283,0,9.72,4.226,9.72,9.72c0,1.902-0.634,3.592-1.479,5.071
	c4.649,0.634,8.241,4.86,8.241,9.72c0,5.283-4.437,9.72-9.72,9.72c-2.747,0-5.071-1.057-6.762-2.747
	c-1.69,2.113-4.226,3.381-6.973,3.381c-4.86,0-8.875-4.015-8.875-8.875s4.015-8.875,8.875-8.875c0.423,0,0.634,0,1.057,0
	c-2.113-1.69-3.592-4.437-3.592-7.396c0-5.283,4.226-9.72,9.72-9.72L254.838,247.123L254.838,247.123z"/>
<path style="fill:#663333;" d="M355.421,273.537l1.479,21.342h-6.551l2.958-21.342H355.421z"/>
<path style="fill:#17BF41;" d="M354.153,247.123c5.283,0,9.72,4.226,9.72,9.72c0,1.902-0.634,3.592-1.479,5.071
	c4.649,0.634,8.241,4.86,8.241,9.72c0,5.283-4.437,9.72-9.72,9.72c-2.747,0-5.071-1.057-6.762-2.747
	c-1.69,2.113-4.226,3.381-6.973,3.381c-4.86,0-8.875-4.015-8.875-8.875s4.015-8.875,8.875-8.875c0.423,0,0.634,0,1.057,0
	c-2.113-1.69-3.592-4.437-3.592-7.396c0-5.283,4.226-9.72,9.72-9.72L354.153,247.123L354.153,247.123z"/>
<rect x="248.5" y="287.488" style="fill:#B3B3B3;" width="110.09" height="11.411"/>
<g>
	<rect x="281.46" y="253.458" style="fill:#999999;" width="44.16" height="26.625"/>
	<path style="fill:#999999;" d="M262.234,220.71h13.524v9.509h-13.524V220.71z M311.468,220.71h13.524v9.509h-13.524V220.71z
		 M331.331,220.71h13.524v9.509h-13.524V220.71z M331.331,236.346h13.524v9.509h-13.524V236.346z M311.468,236.346h13.524v9.509
		h-13.524V236.346z M282.097,220.71h13.524v9.509h-13.524V220.71z M282.097,236.346h13.524v9.509h-13.524V236.346z M262.234,236.346
		h13.524v9.509h-13.524V236.346z"/>
</g>
<path style="fill:#E87D04;" d="M269.418,197.677l1.479,4.649h4.86l-4.015,2.747l1.479,4.649l-4.015-2.747l-4.015,2.747l1.479-4.649
	l-4.015-2.747h4.86l1.479-4.649H269.418z M284.421,196.409l1.902,5.494h5.917l-4.649,3.381l1.902,5.494l-4.649-3.381l-4.649,3.381
	l1.902-5.494l-4.649-3.381h5.917l1.902-5.494H284.421z M337.459,197.677l-1.479,4.649h-4.86l4.015,2.747l-1.479,4.649l4.015-2.958
	l4.015,2.958l-1.479-4.649l4.015-2.747h-4.86l-1.479-4.649H337.459z M322.456,196.409l-1.902,5.494h-5.917l4.649,3.381l-1.902,5.494
	l4.649-3.381l4.649,3.381l-1.902-5.494l4.649-3.381h-5.917l-1.902-5.494H322.456z M303.439,195.141l-2.113,6.551h-6.973l5.494,4.015
	l-2.113,6.551l5.494-4.015l5.494,4.015l-2.113-6.551l5.494-4.015h-6.973l-2.113-6.551H303.439z"/>
<path style="fill:#999999;" d="M266.671,253.251h9.72v7.607h-9.72V253.251z M330.486,253.251h9.72v7.607h-9.72V253.251z"/>
<g>
	<rect x="151.72" y="165.768" style="fill:#808080;" width="82.83" height="5.917"/>
	<rect x="151.72" y="181.408" style="fill:#808080;" width="82.83" height="5.917"/>
	<rect x="151.72" y="197.038" style="fill:#808080;" width="61.913" height="5.917"/>
</g>
</svg>