<?xml version="1.0" encoding="iso-8859-1"?>
<!-- Uploaded to: SVG Repo, www.svgrepo.com, Generator: SVG Repo Mixer Tools -->
<svg height="800px" width="800px" version="1.1" id="Layer_1" xmlns="http://www.w3.org/2000/svg" xmlns:xlink="http://www.w3.org/1999/xlink" 
	 viewBox="0 0 512.001 512.001" xml:space="preserve">
<path style="fill:#EB86BF;" d="M0.001,256.006c0,141.395,114.606,255.998,255.996,255.994
	c141.398,0.004,256.004-114.598,256.004-255.994C512.009,114.61,397.395,0,255.996,0C114.606,0,0.001,114.614,0.001,256.006z"/>
<path style="fill:#D670AD;" d="M498.97,336.633L255.64,93.301l-0.002-0.001l-1.667-1.667c-0.634-0.636-1.393-1.142-2.235-1.494
	c-0.837-0.35-1.743-0.539-2.669-0.539H96.534c-3.829,0-6.933,3.104-6.933,6.933v291.2c0,2.347,1.243,4.32,3.027,5.574
	c0.463,0.658,112.783,112.978,113.441,113.441c0.118,0.167,0.297,0.272,0.427,0.427c16.02,3.139,32.561,4.827,49.502,4.826
	C369.212,512.003,465.185,438.501,498.97,336.633z"/>
<g>
	<path style="fill:#F4F6F9;" d="M311.467,269.867h13.867v-104c0-0.926-0.189-1.831-0.539-2.67c-0.352-0.842-0.859-1.6-1.494-2.235
		l-69.329-69.329c-0.635-0.635-1.393-1.142-2.235-1.494c-0.838-0.35-1.744-0.539-2.67-0.539H96.534
		c-3.829,0-6.933,3.104-6.933,6.933v291.2c0,3.829,3.104,6.933,6.933,6.933h124.8V380.8H103.467V103.467h138.667v62.4
		c0,3.829,3.104,6.933,6.933,6.933h62.4V269.867z M256.001,113.27l45.663,45.663h-45.663V113.27z"/>
	<path style="fill:#F4F6F9;" d="M420.37,292.671l-34.667-34.667c-2.601-2.601-7.204-2.601-9.804,0L271.885,362.031
		c-0.585,0.585-1.01,1.29-1.353,2.035c-0.08,0.174-0.158,0.339-0.222,0.518c-0.055,0.151-0.145,0.287-0.19,0.443l-13.867,48.533
		c-0.694,2.423-0.017,5.027,1.764,6.809c1.317,1.321,3.088,2.031,4.902,2.031c0.637,0,1.277-0.089,1.906-0.268l48.533-13.867
		c0.156-0.044,0.291-0.134,0.443-0.19c0.179-0.065,0.343-0.142,0.518-0.222c0.746-0.342,1.451-0.768,2.035-1.353l104.014-104.027
		C423.078,299.766,423.078,295.379,420.37,292.671z M280.216,380.166l18.004,18.004l-25.205,7.2L280.216,380.166z M311.453,391.795
		l-24.863-24.862l94.21-94.223l24.863,24.863L311.453,391.795z"/>
</g>
</svg>